<svg width="26" height="32" fill="none" xmlns="http://www.w3.org/2000/svg"><path d="M5.53 0c-1.06 0-1.06 1.593 0 1.593h6.636v1.614C5.372 3.642 0 9.47 0 16.585c0 4.035 1.741 7.677 4.49 10.13.478.424.542 1.178.107 1.645l-1.53 1.56c-.742.69.362 1.763 1.03 1.01l1.996-2.05c.35-.34.87-.424 1.306-.212a12.61 12.61 0 0 0 11.051.064 1.133 1.133 0 0 1 1.295.212l1.932 1.985c.68.638 1.656-.318 1.04-1.008l-1.443-1.487c-.446-.456-.382-1.21.106-1.646a13.538 13.538 0 0 0 4.586-10.214c0-7.114-5.403-12.953-12.208-13.367V1.593h6.635c1.061 0 1.061-1.593 0-1.593H5.53ZM1.434 16.574c0-6.572 5.17-11.892 11.55-11.892 6.37 0 11.54 5.32 11.54 11.892 0 6.583-5.17 11.913-11.54 11.913-6.37 0-11.55-5.33-11.55-11.913ZM12.176 8.43c0-1.104 1.656-1.104 1.656 0v8.686a.85.85 0 0 1-.849.85.807.807 0 0 1-.807-.797V8.43Zm-4.968 2.634a1.157 1.157 0 0 0 0-2.315 1.157 1.157 0 0 0 0 2.304v.01Zm11.54 0a1.157 1.157 0 0 0 0-2.315 1.157 1.157 0 0 0 0 2.304v.01ZM8.364 23.73c0 1.54-2.314 1.54-2.314 0s2.314-1.54 2.314 0Zm4.618 3.461a1.157 1.157 0 1 0 .221-2.303 1.157 1.157 0 0 0-.221 2.303ZM4.904 16.744a1.157 1.157 0 1 1-2.304.222 1.157 1.157 0 0 1 2.304-.222Zm17.304 1.157a1.157 1.157 0 1 0 .221-2.303 1.157 1.157 0 0 0-.22 2.303Zm-2.303 5.84c0 1.53-2.315 1.53-2.315-.01s2.314-1.54 2.314 0v.01Z" fill="#fff"/></svg>